{
  "accessors": [
    {
      "bufferView": 0,
      "componentType": 5125,
      "count": 1464,
      "type": "SCALAR"
    },
    {
      "bufferView": 1,
      "componentType": 5126,
      "count": 402,
      "max": [
        0.2931367723363423,
        0.05735351346604236,
        0.01556647773977467
      ],
      "min": [
        -0.2931354224874477,
        -0.057353510377747774,
        -0.015566477739774669
      ],
      "type": "VEC3"
    },
    {
      "bufferView": 2,
      "componentType": 5126,
      "count": 402,
      "max": [
        1.0,
        0.9999997590430189,
        1.0
      ],
      "min": [
        -0.9999922009858493,
        -0.999999889711053,
        -1.0
      ],
      "type": "VEC3"
    },
    {
      "bufferView": 3,
      "componentType": 5126,
      "count": 402,
      "max": [
        1.0,
        0.5428628854858589
      ],
      "min": [
        0.0,
        0.0
      ],
      "type": "VEC2"
    },
    {
      "bufferView": 4,
      "componentType": 5125,
      "count": 3870,
      "type": "SCALAR"
    },
    {
      "bufferView": 5,
      "componentType": 5126,
      "count": 1039,
      "max": [
        0.29413678402329724,
        0.05835351337397891,
        0.010051705780350056
      ],
      "min": [
        -0.29413678402329724,
        -0.0583535133739789,
        -0.010051705780350056
      ],
      "type": "VEC3"
    },
    {
      "bufferView": 6,
      "componentType": 5126,
      "count": 1039,
      "max": [
        1.0,
        0.9999998897113705,
        1.0
      ],
      "min": [
        -1.0,
        -0.9999998897120601,
        -1.0
      ],
      "type": "VEC3"
    },
    {
      "bufferView": 7,
      "componentType": 5126,
      "count": 1039,
      "max": [
        1.0,
        0.4222439153607308
      ],
      "min": [
        0.0,
        0.0
      ],
      "type": "VEC2"
    }
  ],
  "asset": {
    "generator": "Adobe Illustrator",
    "version": "2.0"
  },
  "bufferViews": [
    {
      "buffer": 0,
      "byteLength": 5856,
      "target": 34963
    },
    {
      "buffer": 0,
      "byteLength": 4824,
      "byteOffset": 5856,
      "target": 34962
    },
    {
      "buffer": 0,
      "byteLength": 4824,
      "byteOffset": 10680,
      "target": 34962
    },
    {
      "buffer": 0,
      "byteLength": 3216,
      "byteOffset": 15504,
      "target": 34962
    },
    {
      "buffer": 0,
      "byteLength": 15480,
      "byteOffset": 18720,
      "target": 34963
    },
    {
      "buffer": 0,
      "byteLength": 12468,
      "byteOffset": 34200,
      "target": 34962
    },
    {
      "buffer": 0,
      "byteLength": 12468,
      "byteOffset": 46668,
      "target": 34962
    },
    {
      "buffer": 0,
      "byteLength": 8312,
      "byteOffset": 59136,
      "target": 34962
    }
  ],
  "buffers": [
    {
      "byteLength": 67448,
      "uri": "data:application/octet-stream;base64,"
    }
  ],
  "materials": [
    {
      "doubleSided": true,
      "pbrMetallicRoughness": {
        "baseColorFactor": [
          0.9999999403953552,
          0.0,
          0.0,
          1.0
        ],
        "metallicFactor": 0.0,
        "roughnessFactor": 0.4000000059604645
      }
    },
    {
      "doubleSided": true,
      "pbrMetallicRoughness": {
        "baseColorFactor": [
          0.30078125,
          0.30078125,
          0.30078125,
          1.0
        ],
        "metallicFactor": 0.0,
        "roughnessFactor": 0.4000000059604645
      }
    }
  ],
  "meshes": [
    {
      "primitives": [
        {
          "attributes": {
            "NORMAL": 2,
            "POSITION": 1,
            "TEXCOORD_0": 3
          },
          "indices": 0,
          "material": 0,
          "mode": 4
        }
      ]
    },
    {
      "primitives": [
        {
          "attributes": {
            "NORMAL": 6,
            "POSITION": 5,
            "TEXCOORD_0": 7
          },
          "indices": 4,
          "material": 1,
          "mode": 4
        }
      ]
    }
  ],
  "nodes": [
    {
      "mesh": 0
    },
    {
      "mesh": 1
    }
  ],
  "scenes": [
    {
      "nodes": [
        0,
        1
      ]
    }
  ]
}
